<svg width="759" height="327" viewBox="0 0 759 327" fill="none" xmlns="http://www.w3.org/2000/svg">
<path d="M23 1V304H758" stroke="#EDEBF0" stroke-linecap="round"/>
<path d="M27.008 324.096C26.352 324.096 25.764 323.928 25.244 323.592C24.732 323.256 24.324 322.768 24.02 322.128C23.724 321.488 23.576 320.712 23.576 319.8C23.576 318.888 23.724 318.112 24.02 317.472C24.324 316.832 24.732 316.344 25.244 316.008C25.764 315.672 26.352 315.504 27.008 315.504C27.656 315.504 28.24 315.672 28.76 316.008C29.28 316.344 29.688 316.832 29.984 317.472C30.28 318.112 30.428 318.888 30.428 319.8C30.428 320.712 30.28 321.488 29.984 322.128C29.688 322.768 29.28 323.256 28.76 323.592C28.24 323.928 27.656 324.096 27.008 324.096ZM27.008 323.028C27.448 323.028 27.832 322.908 28.16 322.668C28.496 322.428 28.756 322.068 28.94 321.588C29.132 321.108 29.228 320.512 29.228 319.8C29.228 319.088 29.132 318.492 28.94 318.012C28.756 317.532 28.496 317.172 28.16 316.932C27.832 316.692 27.448 316.572 27.008 316.572C26.568 316.572 26.18 316.692 25.844 316.932C25.508 317.172 25.244 317.532 25.052 318.012C24.868 318.492 24.776 319.088 24.776 319.8C24.776 320.512 24.868 321.108 25.052 321.588C25.244 322.068 25.508 322.428 25.844 322.668C26.18 322.908 26.568 323.028 27.008 323.028Z" fill="black"/>
<path d="M77.992 324V316.08L78.508 316.644H76.096V315.6H79.18V324H77.992ZM84.4494 324.096C83.7934 324.096 83.2054 323.928 82.6854 323.592C82.1734 323.256 81.7654 322.768 81.4614 322.128C81.1654 321.488 81.0174 320.712 81.0174 319.8C81.0174 318.888 81.1654 318.112 81.4614 317.472C81.7654 316.832 82.1734 316.344 82.6854 316.008C83.2054 315.672 83.7934 315.504 84.4494 315.504C85.0974 315.504 85.6814 315.672 86.2014 316.008C86.7214 316.344 87.1294 316.832 87.4254 317.472C87.7214 318.112 87.8694 318.888 87.8694 319.8C87.8694 320.712 87.7214 321.488 87.4254 322.128C87.1294 322.768 86.7214 323.256 86.2014 323.592C85.6814 323.928 85.0974 324.096 84.4494 324.096ZM84.4494 323.028C84.8894 323.028 85.2734 322.908 85.6014 322.668C85.9374 322.428 86.1974 322.068 86.3814 321.588C86.5734 321.108 86.6694 320.512 86.6694 319.8C86.6694 319.088 86.5734 318.492 86.3814 318.012C86.1974 317.532 85.9374 317.172 85.6014 316.932C85.2734 316.692 84.8894 316.572 84.4494 316.572C84.0094 316.572 83.6214 316.692 83.2854 316.932C82.9494 317.172 82.6854 317.532 82.4934 318.012C82.3094 318.492 82.2174 319.088 82.2174 319.8C82.2174 320.512 82.3094 321.108 82.4934 321.588C82.6854 322.068 82.9494 322.428 83.2854 322.668C83.6214 322.908 84.0094 323.028 84.4494 323.028Z" fill="black"/>
<path d="M11.3974 273.096C10.8054 273.096 10.2294 273.004 9.66938 272.82C9.11738 272.636 8.66538 272.388 8.31338 272.076L8.86538 271.128C9.14538 271.392 9.50938 271.608 9.95738 271.776C10.4054 271.944 10.8814 272.028 11.3854 272.028C12.0254 272.028 12.5174 271.892 12.8614 271.62C13.2054 271.348 13.3774 270.984 13.3774 270.528C13.3774 270.216 13.3014 269.944 13.1494 269.712C12.9974 269.48 12.7334 269.304 12.3574 269.184C11.9894 269.056 11.4814 268.992 10.8334 268.992H8.92538L9.36938 264.6H14.1094V265.644H9.81338L10.4374 265.056L10.0894 268.524L9.46538 267.948H11.0854C11.9254 267.948 12.6014 268.056 13.1134 268.272C13.6254 268.488 13.9974 268.788 14.2294 269.172C14.4614 269.548 14.5774 269.984 14.5774 270.48C14.5774 270.96 14.4614 271.4 14.2294 271.8C13.9974 272.192 13.6454 272.508 13.1734 272.748C12.7094 272.98 12.1174 273.096 11.3974 273.096Z" fill="black"/>
<path d="M4.54669 222V214.08L5.06269 214.644H2.65069V213.6H5.73469V222H4.54669ZM11.0041 222.096C10.3481 222.096 9.76009 221.928 9.24009 221.592C8.72809 221.256 8.32009 220.768 8.01609 220.128C7.72009 219.488 7.57209 218.712 7.57209 217.8C7.57209 216.888 7.72009 216.112 8.01609 215.472C8.32009 214.832 8.72809 214.344 9.24009 214.008C9.76009 213.672 10.3481 213.504 11.0041 213.504C11.6521 213.504 12.2361 213.672 12.7561 214.008C13.2761 214.344 13.6841 214.832 13.9801 215.472C14.2761 216.112 14.4241 216.888 14.4241 217.8C14.4241 218.712 14.2761 219.488 13.9801 220.128C13.6841 220.768 13.2761 221.256 12.7561 221.592C12.2361 221.928 11.6521 222.096 11.0041 222.096ZM11.0041 221.028C11.4441 221.028 11.8281 220.908 12.1561 220.668C12.4921 220.428 12.7521 220.068 12.9361 219.588C13.1281 219.108 13.2241 218.512 13.2241 217.8C13.2241 217.088 13.1281 216.492 12.9361 216.012C12.7521 215.532 12.4921 215.172 12.1561 214.932C11.8281 214.692 11.4441 214.572 11.0041 214.572C10.5641 214.572 10.1761 214.692 9.84009 214.932C9.50409 215.172 9.24009 215.532 9.04809 216.012C8.86409 216.492 8.77209 217.088 8.77209 217.8C8.77209 218.512 8.86409 219.108 9.04809 219.588C9.24009 220.068 9.50409 220.428 9.84009 220.668C10.1761 220.908 10.5641 221.028 11.0041 221.028Z" fill="black"/>
<path d="M5.65997 171V163.08L6.17597 163.644H3.76397V162.6H6.84797V171H5.65997ZM11.3974 171.096C10.8054 171.096 10.2294 171.004 9.66938 170.82C9.11738 170.636 8.66538 170.388 8.31338 170.076L8.86538 169.128C9.14538 169.392 9.50938 169.608 9.95738 169.776C10.4054 169.944 10.8814 170.028 11.3854 170.028C12.0254 170.028 12.5174 169.892 12.8614 169.62C13.2054 169.348 13.3774 168.984 13.3774 168.528C13.3774 168.216 13.3014 167.944 13.1494 167.712C12.9974 167.48 12.7334 167.304 12.3574 167.184C11.9894 167.056 11.4814 166.992 10.8334 166.992H8.92538L9.36938 162.6H14.1094V163.644H9.81338L10.4374 163.056L10.0894 166.524L9.46538 165.948H11.0854C11.9254 165.948 12.6014 166.056 13.1134 166.272C13.6254 166.488 13.9974 166.788 14.2294 167.172C14.4614 167.548 14.5774 167.984 14.5774 168.48C14.5774 168.96 14.4614 169.4 14.2294 169.8C13.9974 170.192 13.6454 170.508 13.1734 170.748C12.7094 170.98 12.1174 171.096 11.3974 171.096Z" fill="black"/>
<path d="M0.561188 120V119.184L3.98119 115.884C4.28519 115.596 4.50919 115.344 4.65319 115.128C4.80519 114.904 4.90519 114.7 4.95319 114.516C5.00919 114.324 5.03719 114.14 5.03719 113.964C5.03719 113.532 4.88519 113.192 4.58119 112.944C4.27719 112.696 3.83319 112.572 3.24919 112.572C2.80119 112.572 2.39719 112.648 2.03719 112.8C1.67719 112.944 1.36519 113.172 1.10119 113.484L0.285188 112.776C0.605188 112.368 1.03319 112.056 1.56919 111.84C2.11319 111.616 2.70919 111.504 3.35719 111.504C3.94119 111.504 4.44919 111.6 4.88119 111.792C5.31319 111.976 5.64519 112.244 5.87719 112.596C6.11719 112.948 6.23719 113.364 6.23719 113.844C6.23719 114.116 6.20119 114.384 6.12919 114.648C6.05719 114.912 5.92119 115.192 5.72119 115.488C5.52119 115.784 5.23319 116.116 4.85719 116.484L1.80919 119.424L1.52119 118.956H6.59719V120H0.561188ZM11.0041 120.096C10.3481 120.096 9.76009 119.928 9.24009 119.592C8.72809 119.256 8.32009 118.768 8.01609 118.128C7.72009 117.488 7.57209 116.712 7.57209 115.8C7.57209 114.888 7.72009 114.112 8.01609 113.472C8.32009 112.832 8.72809 112.344 9.24009 112.008C9.76009 111.672 10.3481 111.504 11.0041 111.504C11.6521 111.504 12.2361 111.672 12.7561 112.008C13.2761 112.344 13.6841 112.832 13.9801 113.472C14.2761 114.112 14.4241 114.888 14.4241 115.8C14.4241 116.712 14.2761 117.488 13.9801 118.128C13.6841 118.768 13.2761 119.256 12.7561 119.592C12.2361 119.928 11.6521 120.096 11.0041 120.096ZM11.0041 119.028C11.4441 119.028 11.8281 118.908 12.1561 118.668C12.4921 118.428 12.7521 118.068 12.9361 117.588C13.1281 117.108 13.2241 116.512 13.2241 115.8C13.2241 115.088 13.1281 114.492 12.9361 114.012C12.7521 113.532 12.4921 113.172 12.1561 112.932C11.8281 112.692 11.4441 112.572 11.0041 112.572C10.5641 112.572 10.1761 112.692 9.84009 112.932C9.50409 113.172 9.24009 113.532 9.04809 114.012C8.86409 114.492 8.77209 115.088 8.77209 115.8C8.77209 116.512 8.86409 117.108 9.04809 117.588C9.24009 118.068 9.50409 118.428 9.84009 118.668C10.1761 118.908 10.5641 119.028 11.0041 119.028Z" fill="black"/>
<path d="M1.66275 69V68.184L5.08275 64.884C5.38675 64.596 5.61075 64.344 5.75475 64.128C5.90675 63.904 6.00675 63.7 6.05475 63.516C6.11075 63.324 6.13875 63.14 6.13875 62.964C6.13875 62.532 5.98675 62.192 5.68275 61.944C5.37875 61.696 4.93475 61.572 4.35075 61.572C3.90275 61.572 3.49875 61.648 3.13875 61.8C2.77875 61.944 2.46675 62.172 2.20275 62.484L1.38675 61.776C1.70675 61.368 2.13475 61.056 2.67075 60.84C3.21475 60.616 3.81075 60.504 4.45875 60.504C5.04275 60.504 5.55075 60.6 5.98275 60.792C6.41475 60.976 6.74675 61.244 6.97875 61.596C7.21875 61.948 7.33875 62.364 7.33875 62.844C7.33875 63.116 7.30275 63.384 7.23075 63.648C7.15875 63.912 7.02275 64.192 6.82275 64.488C6.62275 64.784 6.33475 65.116 5.95875 65.484L2.91075 68.424L2.62275 67.956H7.69875V69H1.66275ZM11.3974 69.096C10.8054 69.096 10.2294 69.004 9.66938 68.82C9.11738 68.636 8.66538 68.388 8.31338 68.076L8.86538 67.128C9.14538 67.392 9.50938 67.608 9.95738 67.776C10.4054 67.944 10.8814 68.028 11.3854 68.028C12.0254 68.028 12.5174 67.892 12.8614 67.62C13.2054 67.348 13.3774 66.984 13.3774 66.528C13.3774 66.216 13.3014 65.944 13.1494 65.712C12.9974 65.48 12.7334 65.304 12.3574 65.184C11.9894 65.056 11.4814 64.992 10.8334 64.992H8.92538L9.36938 60.6H14.1094V61.644H9.81338L10.4374 61.056L10.0894 64.524L9.46538 63.948H11.0854C11.9254 63.948 12.6014 64.056 13.1134 64.272C13.6254 64.488 13.9974 64.788 14.2294 65.172C14.4614 65.548 14.5774 65.984 14.5774 66.48C14.5774 66.96 14.4614 67.4 14.2294 67.8C13.9974 68.192 13.6454 68.508 13.1734 68.748C12.7094 68.98 12.1174 69.096 11.3974 69.096Z" fill="black"/>
<path d="M3.27291 18.096C2.68091 18.096 2.10491 18.004 1.54491 17.82C0.992906 17.636 0.540906 17.388 0.188906 17.076L0.740906 16.128C1.02091 16.392 1.38491 16.608 1.83291 16.776C2.28091 16.944 2.76091 17.028 3.27291 17.028C3.89691 17.028 4.38091 16.896 4.72491 16.632C5.07691 16.36 5.25291 15.996 5.25291 15.54C5.25291 15.1 5.08491 14.748 4.74891 14.484C4.42091 14.212 3.89691 14.076 3.17691 14.076H2.50491V13.236L5.00091 10.164L5.16891 10.644H0.572906V9.6H6.11691V10.416L3.63291 13.476L3.00891 13.104H3.40491C4.42091 13.104 5.18091 13.332 5.68491 13.788C6.19691 14.244 6.45291 14.824 6.45291 15.528C6.45291 16 6.33691 16.432 6.10491 16.824C5.87291 17.216 5.52091 17.528 5.04891 17.76C4.58491 17.984 3.99291 18.096 3.27291 18.096ZM11.0041 18.096C10.3481 18.096 9.76009 17.928 9.24009 17.592C8.72809 17.256 8.32009 16.768 8.01609 16.128C7.72009 15.488 7.57209 14.712 7.57209 13.8C7.57209 12.888 7.72009 12.112 8.01609 11.472C8.32009 10.832 8.72809 10.344 9.24009 10.008C9.76009 9.672 10.3481 9.504 11.0041 9.504C11.6521 9.504 12.2361 9.672 12.7561 10.008C13.2761 10.344 13.6841 10.832 13.9801 11.472C14.2761 12.112 14.4241 12.888 14.4241 13.8C14.4241 14.712 14.2761 15.488 13.9801 16.128C13.6841 16.768 13.2761 17.256 12.7561 17.592C12.2361 17.928 11.6521 18.096 11.0041 18.096ZM11.0041 17.028C11.4441 17.028 11.8281 16.908 12.1561 16.668C12.4921 16.428 12.7521 16.068 12.9361 15.588C13.1281 15.108 13.2241 14.512 13.2241 13.8C13.2241 13.088 13.1281 12.492 12.9361 12.012C12.7521 11.532 12.4921 11.172 12.1561 10.932C11.8281 10.692 11.4441 10.572 11.0041 10.572C10.5641 10.572 10.1761 10.692 9.84009 10.932C9.50409 11.172 9.24009 11.532 9.04809 12.012C8.86409 12.492 8.77209 13.088 8.77209 13.8C8.77209 14.512 8.86409 15.108 9.04809 15.588C9.24009 16.068 9.50409 16.428 9.84009 16.668C10.1761 16.908 10.5641 17.028 11.0041 17.028Z" fill="black"/>
<path d="M133.444 324V323.184L136.864 319.884C137.168 319.596 137.392 319.344 137.536 319.128C137.688 318.904 137.788 318.7 137.836 318.516C137.892 318.324 137.92 318.14 137.92 317.964C137.92 317.532 137.768 317.192 137.464 316.944C137.16 316.696 136.716 316.572 136.132 316.572C135.684 316.572 135.28 316.648 134.92 316.8C134.56 316.944 134.248 317.172 133.984 317.484L133.168 316.776C133.488 316.368 133.916 316.056 134.452 315.84C134.996 315.616 135.592 315.504 136.24 315.504C136.824 315.504 137.332 315.6 137.764 315.792C138.196 315.976 138.528 316.244 138.76 316.596C139 316.948 139.12 317.364 139.12 317.844C139.12 318.116 139.084 318.384 139.012 318.648C138.94 318.912 138.804 319.192 138.604 319.488C138.404 319.784 138.116 320.116 137.74 320.484L134.692 323.424L134.404 322.956H139.48V324H133.444ZM143.887 324.096C143.231 324.096 142.643 323.928 142.123 323.592C141.611 323.256 141.203 322.768 140.899 322.128C140.603 321.488 140.455 320.712 140.455 319.8C140.455 318.888 140.603 318.112 140.899 317.472C141.203 316.832 141.611 316.344 142.123 316.008C142.643 315.672 143.231 315.504 143.887 315.504C144.535 315.504 145.119 315.672 145.639 316.008C146.159 316.344 146.567 316.832 146.863 317.472C147.159 318.112 147.307 318.888 147.307 319.8C147.307 320.712 147.159 321.488 146.863 322.128C146.567 322.768 146.159 323.256 145.639 323.592C145.119 323.928 144.535 324.096 143.887 324.096ZM143.887 323.028C144.327 323.028 144.711 322.908 145.039 322.668C145.375 322.428 145.635 322.068 145.819 321.588C146.011 321.108 146.107 320.512 146.107 319.8C146.107 319.088 146.011 318.492 145.819 318.012C145.635 317.532 145.375 317.172 145.039 316.932C144.711 316.692 144.327 316.572 143.887 316.572C143.447 316.572 143.059 316.692 142.723 316.932C142.387 317.172 142.123 317.532 141.931 318.012C141.747 318.492 141.655 319.088 141.655 319.8C141.655 320.512 141.747 321.108 141.931 321.588C142.123 322.068 142.387 322.428 142.723 322.668C143.059 322.908 143.447 323.028 143.887 323.028Z" fill="black"/>
<path d="M195.144 324.096C194.552 324.096 193.976 324.004 193.416 323.82C192.864 323.636 192.412 323.388 192.06 323.076L192.612 322.128C192.892 322.392 193.256 322.608 193.704 322.776C194.152 322.944 194.632 323.028 195.144 323.028C195.768 323.028 196.252 322.896 196.596 322.632C196.948 322.36 197.124 321.996 197.124 321.54C197.124 321.1 196.956 320.748 196.62 320.484C196.292 320.212 195.768 320.076 195.048 320.076H194.376V319.236L196.872 316.164L197.04 316.644H192.444V315.6H197.988V316.416L195.504 319.476L194.88 319.104H195.276C196.292 319.104 197.052 319.332 197.556 319.788C198.068 320.244 198.324 320.824 198.324 321.528C198.324 322 198.208 322.432 197.976 322.824C197.744 323.216 197.392 323.528 196.92 323.76C196.456 323.984 195.864 324.096 195.144 324.096ZM202.875 324.096C202.219 324.096 201.631 323.928 201.111 323.592C200.599 323.256 200.191 322.768 199.887 322.128C199.591 321.488 199.443 320.712 199.443 319.8C199.443 318.888 199.591 318.112 199.887 317.472C200.191 316.832 200.599 316.344 201.111 316.008C201.631 315.672 202.219 315.504 202.875 315.504C203.523 315.504 204.107 315.672 204.627 316.008C205.147 316.344 205.555 316.832 205.851 317.472C206.147 318.112 206.295 318.888 206.295 319.8C206.295 320.712 206.147 321.488 205.851 322.128C205.555 322.768 205.147 323.256 204.627 323.592C204.107 323.928 203.523 324.096 202.875 324.096ZM202.875 323.028C203.315 323.028 203.699 322.908 204.027 322.668C204.363 322.428 204.623 322.068 204.807 321.588C204.999 321.108 205.095 320.512 205.095 319.8C205.095 319.088 204.999 318.492 204.807 318.012C204.623 317.532 204.363 317.172 204.027 316.932C203.699 316.692 203.315 316.572 202.875 316.572C202.435 316.572 202.047 316.692 201.711 316.932C201.375 317.172 201.111 317.532 200.919 318.012C200.735 318.492 200.643 319.088 200.643 319.8C200.643 320.512 200.735 321.108 200.919 321.588C201.111 322.068 201.375 322.428 201.711 322.668C202.047 322.908 202.435 323.028 202.875 323.028Z" fill="black"/>
<path d="M251.456 321.936V321.096L255.752 315.6H257.048L252.788 321.096L252.176 320.904H258.884V321.936H251.456ZM256.124 324V321.936L256.16 320.904V319.08H257.288V324H256.124ZM263.035 324.096C262.379 324.096 261.791 323.928 261.271 323.592C260.759 323.256 260.351 322.768 260.047 322.128C259.751 321.488 259.603 320.712 259.603 319.8C259.603 318.888 259.751 318.112 260.047 317.472C260.351 316.832 260.759 316.344 261.271 316.008C261.791 315.672 262.379 315.504 263.035 315.504C263.683 315.504 264.267 315.672 264.787 316.008C265.307 316.344 265.715 316.832 266.011 317.472C266.307 318.112 266.455 318.888 266.455 319.8C266.455 320.712 266.307 321.488 266.011 322.128C265.715 322.768 265.307 323.256 264.787 323.592C264.267 323.928 263.683 324.096 263.035 324.096ZM263.035 323.028C263.475 323.028 263.859 322.908 264.187 322.668C264.523 322.428 264.783 322.068 264.967 321.588C265.159 321.108 265.255 320.512 265.255 319.8C265.255 319.088 265.159 318.492 264.967 318.012C264.783 317.532 264.523 317.172 264.187 316.932C263.859 316.692 263.475 316.572 263.035 316.572C262.595 316.572 262.207 316.692 261.871 316.932C261.535 317.172 261.271 317.532 261.079 318.012C260.895 318.492 260.803 319.088 260.803 319.8C260.803 320.512 260.895 321.108 261.079 321.588C261.271 322.068 261.535 322.428 261.871 322.668C262.207 322.908 262.595 323.028 263.035 323.028Z" fill="black"/>
<path d="M315.288 324.096C314.696 324.096 314.12 324.004 313.56 323.82C313.008 323.636 312.556 323.388 312.204 323.076L312.756 322.128C313.036 322.392 313.4 322.608 313.848 322.776C314.296 322.944 314.772 323.028 315.276 323.028C315.916 323.028 316.408 322.892 316.752 322.62C317.096 322.348 317.268 321.984 317.268 321.528C317.268 321.216 317.192 320.944 317.04 320.712C316.888 320.48 316.624 320.304 316.248 320.184C315.88 320.056 315.372 319.992 314.724 319.992H312.816L313.26 315.6H318V316.644H313.704L314.328 316.056L313.98 319.524L313.356 318.948H314.976C315.816 318.948 316.492 319.056 317.004 319.272C317.516 319.488 317.888 319.788 318.12 320.172C318.352 320.548 318.468 320.984 318.468 321.48C318.468 321.96 318.352 322.4 318.12 322.8C317.888 323.192 317.536 323.508 317.064 323.748C316.6 323.98 316.008 324.096 315.288 324.096ZM322.899 324.096C322.243 324.096 321.655 323.928 321.135 323.592C320.623 323.256 320.215 322.768 319.911 322.128C319.615 321.488 319.467 320.712 319.467 319.8C319.467 318.888 319.615 318.112 319.911 317.472C320.215 316.832 320.623 316.344 321.135 316.008C321.655 315.672 322.243 315.504 322.899 315.504C323.547 315.504 324.131 315.672 324.651 316.008C325.171 316.344 325.579 316.832 325.875 317.472C326.171 318.112 326.319 318.888 326.319 319.8C326.319 320.712 326.171 321.488 325.875 322.128C325.579 322.768 325.171 323.256 324.651 323.592C324.131 323.928 323.547 324.096 322.899 324.096ZM322.899 323.028C323.339 323.028 323.723 322.908 324.051 322.668C324.387 322.428 324.647 322.068 324.831 321.588C325.023 321.108 325.119 320.512 325.119 319.8C325.119 319.088 325.023 318.492 324.831 318.012C324.647 317.532 324.387 317.172 324.051 316.932C323.723 316.692 323.339 316.572 322.899 316.572C322.459 316.572 322.071 316.692 321.735 316.932C321.399 317.172 321.135 317.532 320.943 318.012C320.759 318.492 320.667 319.088 320.667 319.8C320.667 320.512 320.759 321.108 320.943 321.588C321.135 322.068 321.399 322.428 321.735 322.668C322.071 322.908 322.459 323.028 322.899 323.028Z" fill="black"/>
<path d="M375.104 324.096C374.36 324.096 373.724 323.932 373.196 323.604C372.668 323.276 372.264 322.804 371.984 322.188C371.712 321.564 371.576 320.804 371.576 319.908C371.576 318.956 371.744 318.152 372.08 317.496C372.416 316.84 372.884 316.344 373.484 316.008C374.084 315.672 374.772 315.504 375.548 315.504C375.948 315.504 376.328 315.544 376.688 315.624C377.056 315.704 377.372 315.828 377.636 315.996L377.18 316.932C376.964 316.78 376.716 316.676 376.436 316.62C376.164 316.564 375.876 316.536 375.572 316.536C374.716 316.536 374.036 316.804 373.532 317.34C373.028 317.868 372.776 318.656 372.776 319.704C372.776 319.872 372.784 320.072 372.8 320.304C372.816 320.536 372.856 320.764 372.92 320.988L372.512 320.58C372.632 320.212 372.82 319.904 373.076 319.656C373.34 319.4 373.652 319.212 374.012 319.092C374.38 318.964 374.776 318.9 375.2 318.9C375.76 318.9 376.256 319.004 376.688 319.212C377.12 319.42 377.46 319.716 377.708 320.1C377.956 320.476 378.08 320.924 378.08 321.444C378.08 321.98 377.948 322.448 377.684 322.848C377.42 323.248 377.064 323.556 376.616 323.772C376.168 323.988 375.664 324.096 375.104 324.096ZM375.056 323.124C375.424 323.124 375.744 323.056 376.016 322.92C376.296 322.784 376.516 322.596 376.676 322.356C376.836 322.108 376.916 321.82 376.916 321.492C376.916 320.996 376.744 320.604 376.4 320.316C376.056 320.02 375.588 319.872 374.996 319.872C374.612 319.872 374.276 319.944 373.988 320.088C373.7 320.232 373.472 320.428 373.304 320.676C373.144 320.916 373.064 321.192 373.064 321.504C373.064 321.792 373.14 322.06 373.292 322.308C373.444 322.548 373.668 322.744 373.964 322.896C374.26 323.048 374.624 323.124 375.056 323.124ZM382.414 324.096C381.758 324.096 381.17 323.928 380.65 323.592C380.138 323.256 379.73 322.768 379.426 322.128C379.13 321.488 378.982 320.712 378.982 319.8C378.982 318.888 379.13 318.112 379.426 317.472C379.73 316.832 380.138 316.344 380.65 316.008C381.17 315.672 381.758 315.504 382.414 315.504C383.062 315.504 383.646 315.672 384.166 316.008C384.686 316.344 385.094 316.832 385.39 317.472C385.686 318.112 385.834 318.888 385.834 319.8C385.834 320.712 385.686 321.488 385.39 322.128C385.094 322.768 384.686 323.256 384.166 323.592C383.646 323.928 383.062 324.096 382.414 324.096ZM382.414 323.028C382.854 323.028 383.238 322.908 383.566 322.668C383.902 322.428 384.162 322.068 384.346 321.588C384.538 321.108 384.634 320.512 384.634 319.8C384.634 319.088 384.538 318.492 384.346 318.012C384.162 317.532 383.902 317.172 383.566 316.932C383.238 316.692 382.854 316.572 382.414 316.572C381.974 316.572 381.586 316.692 381.25 316.932C380.914 317.172 380.65 317.532 380.458 318.012C380.274 318.492 380.182 319.088 380.182 319.8C380.182 320.512 380.274 321.108 380.458 321.588C380.65 322.068 380.914 322.428 381.25 322.668C381.586 322.908 381.974 323.028 382.414 323.028Z" fill="black"/>
<path d="M433.028 324L436.592 316.104L436.904 316.644H431.912L432.512 316.056V318.144H431.36V315.6H437.696V316.416L434.3 324H433.028ZM441.946 324.096C441.29 324.096 440.702 323.928 440.182 323.592C439.67 323.256 439.262 322.768 438.958 322.128C438.662 321.488 438.514 320.712 438.514 319.8C438.514 318.888 438.662 318.112 438.958 317.472C439.262 316.832 439.67 316.344 440.182 316.008C440.702 315.672 441.29 315.504 441.946 315.504C442.594 315.504 443.178 315.672 443.698 316.008C444.218 316.344 444.626 316.832 444.922 317.472C445.218 318.112 445.366 318.888 445.366 319.8C445.366 320.712 445.218 321.488 444.922 322.128C444.626 322.768 444.218 323.256 443.698 323.592C443.178 323.928 442.594 324.096 441.946 324.096ZM441.946 323.028C442.386 323.028 442.77 322.908 443.098 322.668C443.434 322.428 443.694 322.068 443.878 321.588C444.07 321.108 444.166 320.512 444.166 319.8C444.166 319.088 444.07 318.492 443.878 318.012C443.694 317.532 443.434 317.172 443.098 316.932C442.77 316.692 442.386 316.572 441.946 316.572C441.506 316.572 441.118 316.692 440.782 316.932C440.446 317.172 440.182 317.532 439.99 318.012C439.806 318.492 439.714 319.088 439.714 319.8C439.714 320.512 439.806 321.108 439.99 321.588C440.182 322.068 440.446 322.428 440.782 322.668C441.118 322.908 441.506 323.028 441.946 323.028Z" fill="black"/>
<path d="M493.852 324.096C493.172 324.096 492.584 323.996 492.088 323.796C491.592 323.596 491.208 323.312 490.936 322.944C490.664 322.568 490.528 322.128 490.528 321.624C490.528 321.128 490.656 320.708 490.912 320.364C491.176 320.012 491.556 319.748 492.052 319.572C492.548 319.388 493.148 319.296 493.852 319.296C494.556 319.296 495.156 319.388 495.652 319.572C496.156 319.748 496.54 320.012 496.804 320.364C497.068 320.716 497.2 321.136 497.2 321.624C497.2 322.128 497.064 322.568 496.792 322.944C496.52 323.312 496.132 323.596 495.628 323.796C495.124 323.996 494.532 324.096 493.852 324.096ZM493.852 323.124C494.524 323.124 495.048 322.988 495.424 322.716C495.808 322.436 496 322.06 496 321.588C496 321.124 495.808 320.76 495.424 320.496C495.048 320.224 494.524 320.088 493.852 320.088C493.188 320.088 492.668 320.224 492.292 320.496C491.916 320.76 491.728 321.124 491.728 321.588C491.728 322.06 491.916 322.436 492.292 322.716C492.668 322.988 493.188 323.124 493.852 323.124ZM493.852 319.944C493.212 319.944 492.668 319.86 492.22 319.692C491.772 319.516 491.428 319.268 491.188 318.948C490.948 318.62 490.828 318.232 490.828 317.784C490.828 317.312 490.952 316.908 491.2 316.572C491.456 316.228 491.812 315.964 492.268 315.78C492.724 315.596 493.252 315.504 493.852 315.504C494.46 315.504 494.992 315.596 495.448 315.78C495.904 315.964 496.26 316.228 496.516 316.572C496.772 316.908 496.9 317.312 496.9 317.784C496.9 318.232 496.78 318.62 496.54 318.948C496.3 319.268 495.952 319.516 495.496 319.692C495.04 319.86 494.492 319.944 493.852 319.944ZM493.852 319.176C494.436 319.176 494.892 319.056 495.22 318.816C495.556 318.576 495.724 318.248 495.724 317.832C495.724 317.408 495.552 317.076 495.208 316.836C494.864 316.596 494.412 316.476 493.852 316.476C493.292 316.476 492.844 316.596 492.508 316.836C492.18 317.076 492.016 317.408 492.016 317.832C492.016 318.248 492.176 318.576 492.496 318.816C492.824 319.056 493.276 319.176 493.852 319.176ZM501.731 324.096C501.075 324.096 500.487 323.928 499.967 323.592C499.455 323.256 499.047 322.768 498.743 322.128C498.447 321.488 498.299 320.712 498.299 319.8C498.299 318.888 498.447 318.112 498.743 317.472C499.047 316.832 499.455 316.344 499.967 316.008C500.487 315.672 501.075 315.504 501.731 315.504C502.379 315.504 502.963 315.672 503.483 316.008C504.003 316.344 504.411 316.832 504.707 317.472C505.003 318.112 505.151 318.888 505.151 319.8C505.151 320.712 505.003 321.488 504.707 322.128C504.411 322.768 504.003 323.256 503.483 323.592C502.963 323.928 502.379 324.096 501.731 324.096ZM501.731 323.028C502.171 323.028 502.555 322.908 502.883 322.668C503.219 322.428 503.479 322.068 503.663 321.588C503.855 321.108 503.951 320.512 503.951 319.8C503.951 319.088 503.855 318.492 503.663 318.012C503.479 317.532 503.219 317.172 502.883 316.932C502.555 316.692 502.171 316.572 501.731 316.572C501.291 316.572 500.903 316.692 500.567 316.932C500.231 317.172 499.967 317.532 499.775 318.012C499.591 318.492 499.499 319.088 499.499 319.8C499.499 320.512 499.591 321.108 499.775 321.588C499.967 322.068 500.231 322.428 500.567 322.668C500.903 322.908 501.291 323.028 501.731 323.028Z" fill="black"/>
<path d="M553.3 315.504C554.06 315.504 554.7 315.668 555.22 315.996C555.748 316.324 556.148 316.8 556.42 317.424C556.692 318.04 556.828 318.796 556.828 319.692C556.828 320.644 556.66 321.448 556.324 322.104C555.988 322.76 555.524 323.256 554.932 323.592C554.34 323.928 553.648 324.096 552.856 324.096C552.464 324.096 552.084 324.056 551.716 323.976C551.356 323.896 551.04 323.772 550.768 323.604L551.224 322.668C551.448 322.812 551.696 322.916 551.968 322.98C552.248 323.036 552.54 323.064 552.844 323.064C553.692 323.064 554.368 322.8 554.872 322.272C555.376 321.736 555.628 320.944 555.628 319.896C555.628 319.728 555.62 319.528 555.604 319.296C555.588 319.064 555.552 318.836 555.496 318.612L555.892 319.02C555.78 319.388 555.592 319.7 555.328 319.956C555.072 320.204 554.76 320.392 554.392 320.52C554.032 320.64 553.636 320.7 553.204 320.7C552.652 320.7 552.16 320.596 551.728 320.388C551.296 320.18 550.956 319.888 550.708 319.512C550.46 319.128 550.336 318.676 550.336 318.156C550.336 317.612 550.464 317.144 550.72 316.752C550.984 316.352 551.34 316.044 551.788 315.828C552.244 315.612 552.748 315.504 553.3 315.504ZM553.348 316.476C552.988 316.476 552.668 316.544 552.388 316.68C552.108 316.816 551.888 317.004 551.728 317.244C551.576 317.484 551.5 317.772 551.5 318.108C551.5 318.604 551.672 319 552.016 319.296C552.36 319.584 552.824 319.728 553.408 319.728C553.792 319.728 554.128 319.656 554.416 319.512C554.712 319.368 554.94 319.172 555.1 318.924C555.268 318.676 555.352 318.4 555.352 318.096C555.352 317.8 555.276 317.532 555.124 317.292C554.972 317.052 554.748 316.856 554.452 316.704C554.156 316.552 553.788 316.476 553.348 316.476ZM561.414 324.096C560.758 324.096 560.17 323.928 559.65 323.592C559.138 323.256 558.73 322.768 558.426 322.128C558.13 321.488 557.982 320.712 557.982 319.8C557.982 318.888 558.13 318.112 558.426 317.472C558.73 316.832 559.138 316.344 559.65 316.008C560.17 315.672 560.758 315.504 561.414 315.504C562.062 315.504 562.646 315.672 563.166 316.008C563.686 316.344 564.094 316.832 564.39 317.472C564.686 318.112 564.834 318.888 564.834 319.8C564.834 320.712 564.686 321.488 564.39 322.128C564.094 322.768 563.686 323.256 563.166 323.592C562.646 323.928 562.062 324.096 561.414 324.096ZM561.414 323.028C561.854 323.028 562.238 322.908 562.566 322.668C562.902 322.428 563.162 322.068 563.346 321.588C563.538 321.108 563.634 320.512 563.634 319.8C563.634 319.088 563.538 318.492 563.346 318.012C563.162 317.532 562.902 317.172 562.566 316.932C562.238 316.692 561.854 316.572 561.414 316.572C560.974 316.572 560.586 316.692 560.25 316.932C559.914 317.172 559.65 317.532 559.458 318.012C559.274 318.492 559.182 319.088 559.182 319.8C559.182 320.512 559.274 321.108 559.458 321.588C559.65 322.068 559.914 322.428 560.25 322.668C560.586 322.908 560.974 323.028 561.414 323.028Z" fill="black"/>
<path d="M611.992 324V316.08L612.508 316.644H610.096V315.6H613.18V324H611.992ZM618.449 324.096C617.793 324.096 617.205 323.928 616.685 323.592C616.173 323.256 615.765 322.768 615.461 322.128C615.165 321.488 615.017 320.712 615.017 319.8C615.017 318.888 615.165 318.112 615.461 317.472C615.765 316.832 616.173 316.344 616.685 316.008C617.205 315.672 617.793 315.504 618.449 315.504C619.097 315.504 619.681 315.672 620.201 316.008C620.721 316.344 621.129 316.832 621.425 317.472C621.721 318.112 621.869 318.888 621.869 319.8C621.869 320.712 621.721 321.488 621.425 322.128C621.129 322.768 620.721 323.256 620.201 323.592C619.681 323.928 619.097 324.096 618.449 324.096ZM618.449 323.028C618.889 323.028 619.273 322.908 619.601 322.668C619.937 322.428 620.197 322.068 620.381 321.588C620.573 321.108 620.669 320.512 620.669 319.8C620.669 319.088 620.573 318.492 620.381 318.012C620.197 317.532 619.937 317.172 619.601 316.932C619.273 316.692 618.889 316.572 618.449 316.572C618.009 316.572 617.621 316.692 617.285 316.932C616.949 317.172 616.685 317.532 616.493 318.012C616.309 318.492 616.217 319.088 616.217 319.8C616.217 320.512 616.309 321.108 616.493 321.588C616.685 322.068 616.949 322.428 617.285 322.668C617.621 322.908 618.009 323.028 618.449 323.028ZM626.453 324.096C625.797 324.096 625.209 323.928 624.689 323.592C624.177 323.256 623.769 322.768 623.465 322.128C623.169 321.488 623.021 320.712 623.021 319.8C623.021 318.888 623.169 318.112 623.465 317.472C623.769 316.832 624.177 316.344 624.689 316.008C625.209 315.672 625.797 315.504 626.453 315.504C627.101 315.504 627.685 315.672 628.205 316.008C628.725 316.344 629.133 316.832 629.429 317.472C629.725 318.112 629.873 318.888 629.873 319.8C629.873 320.712 629.725 321.488 629.429 322.128C629.133 322.768 628.725 323.256 628.205 323.592C627.685 323.928 627.101 324.096 626.453 324.096ZM626.453 323.028C626.893 323.028 627.277 322.908 627.605 322.668C627.941 322.428 628.201 322.068 628.385 321.588C628.577 321.108 628.673 320.512 628.673 319.8C628.673 319.088 628.577 318.492 628.385 318.012C628.201 317.532 627.941 317.172 627.605 316.932C627.277 316.692 626.893 316.572 626.453 316.572C626.013 316.572 625.625 316.692 625.289 316.932C624.953 317.172 624.689 317.532 624.497 318.012C624.313 318.492 624.221 319.088 624.221 319.8C624.221 320.512 624.313 321.108 624.497 321.588C624.689 322.068 624.953 322.428 625.289 322.668C625.625 322.908 626.013 323.028 626.453 323.028Z" fill="black"/>
<path d="M676.992 324V316.08L677.508 316.644H675.096V315.6H678.18V324H676.992ZM681.433 324V316.08L681.949 316.644H679.537V315.6H682.621V324H681.433ZM687.891 324.096C687.235 324.096 686.647 323.928 686.127 323.592C685.615 323.256 685.207 322.768 684.903 322.128C684.607 321.488 684.459 320.712 684.459 319.8C684.459 318.888 684.607 318.112 684.903 317.472C685.207 316.832 685.615 316.344 686.127 316.008C686.647 315.672 687.235 315.504 687.891 315.504C688.539 315.504 689.123 315.672 689.643 316.008C690.163 316.344 690.571 316.832 690.867 317.472C691.163 318.112 691.311 318.888 691.311 319.8C691.311 320.712 691.163 321.488 690.867 322.128C690.571 322.768 690.163 323.256 689.643 323.592C689.123 323.928 688.539 324.096 687.891 324.096ZM687.891 323.028C688.331 323.028 688.715 322.908 689.043 322.668C689.379 322.428 689.639 322.068 689.823 321.588C690.015 321.108 690.111 320.512 690.111 319.8C690.111 319.088 690.015 318.492 689.823 318.012C689.639 317.532 689.379 317.172 689.043 316.932C688.715 316.692 688.331 316.572 687.891 316.572C687.451 316.572 687.063 316.692 686.727 316.932C686.391 317.172 686.127 317.532 685.935 318.012C685.751 318.492 685.659 319.088 685.659 319.8C685.659 320.512 685.751 321.108 685.935 321.588C686.127 322.068 686.391 322.428 686.727 322.668C687.063 322.908 687.451 323.028 687.891 323.028Z" fill="black"/>
<path d="M737.992 324V316.08L738.508 316.644H736.096V315.6H739.18V324H737.992ZM740.885 324V323.184L744.305 319.884C744.609 319.596 744.833 319.344 744.977 319.128C745.129 318.904 745.229 318.7 745.277 318.516C745.333 318.324 745.361 318.14 745.361 317.964C745.361 317.532 745.209 317.192 744.905 316.944C744.601 316.696 744.157 316.572 743.573 316.572C743.125 316.572 742.721 316.648 742.361 316.8C742.001 316.944 741.689 317.172 741.425 317.484L740.609 316.776C740.929 316.368 741.357 316.056 741.893 315.84C742.437 315.616 743.033 315.504 743.681 315.504C744.265 315.504 744.773 315.6 745.205 315.792C745.637 315.976 745.969 316.244 746.201 316.596C746.441 316.948 746.561 317.364 746.561 317.844C746.561 318.116 746.525 318.384 746.453 318.648C746.381 318.912 746.245 319.192 746.045 319.488C745.845 319.784 745.557 320.116 745.181 320.484L742.133 323.424L741.845 322.956H746.921V324H740.885ZM751.328 324.096C750.672 324.096 750.084 323.928 749.564 323.592C749.052 323.256 748.644 322.768 748.34 322.128C748.044 321.488 747.896 320.712 747.896 319.8C747.896 318.888 748.044 318.112 748.34 317.472C748.644 316.832 749.052 316.344 749.564 316.008C750.084 315.672 750.672 315.504 751.328 315.504C751.976 315.504 752.56 315.672 753.08 316.008C753.6 316.344 754.008 316.832 754.304 317.472C754.6 318.112 754.748 318.888 754.748 319.8C754.748 320.712 754.6 321.488 754.304 322.128C754.008 322.768 753.6 323.256 753.08 323.592C752.56 323.928 751.976 324.096 751.328 324.096ZM751.328 323.028C751.768 323.028 752.152 322.908 752.48 322.668C752.816 322.428 753.076 322.068 753.26 321.588C753.452 321.108 753.548 320.512 753.548 319.8C753.548 319.088 753.452 318.492 753.26 318.012C753.076 317.532 752.816 317.172 752.48 316.932C752.152 316.692 751.768 316.572 751.328 316.572C750.888 316.572 750.5 316.692 750.164 316.932C749.828 317.172 749.564 317.532 749.372 318.012C749.188 318.492 749.096 319.088 749.096 319.8C749.096 320.512 749.188 321.108 749.372 321.588C749.564 322.068 749.828 322.428 750.164 322.668C750.5 322.908 750.888 323.028 751.328 323.028Z" fill="black"/>
<path d="M32.4231 252.184L23 304H758V151.702L748.577 127.58C739.154 103.458 720.308 55.2141 701.462 57.051C682.615 58.8879 663.769 110.806 644.923 150.887C626.077 190.967 607.231 219.212 588.385 202.97C569.538 186.728 550.692 126.001 531.846 105.343C513 84.6846 494.154 104.096 475.308 97.8178C456.462 91.5397 437.615 59.5722 418.769 75.1374C399.923 90.7025 381.077 153.8 362.231 181.498C343.385 209.195 324.538 201.492 305.692 167.948C286.846 134.403 268 75.0173 249.154 87.2063C230.308 99.3952 211.462 183.159 192.615 202.092C173.845 220.948 155.075 175.495 136.305 130.043L136.077 129.49C117.231 83.8534 98.3846 38.4801 79.5385 67.609C60.6923 96.7379 41.8462 200.369 32.4231 252.184Z" fill="url(#paint0_linear_12_616)"/>
<path d="M23 304L32.3846 252.184C41.7692 200.369 60.5385 96.7379 79.3077 67.609C98.0769 38.4801 116.846 83.8534 135.615 129.49C154.385 175.126 173.154 221.025 191.923 202.092C210.692 183.159 229.462 99.3952 248.231 87.2063C267 75.0173 285.769 134.403 304.538 167.948C323.308 201.493 342.077 209.195 360.846 181.498C379.615 153.8 398.385 90.7025 417.154 75.1374C435.923 59.5722 454.692 91.5397 473.462 97.8178C492.231 104.096 511 84.6846 529.769 105.343C548.538 126.001 567.308 186.728 586.077 202.97C604.846 219.212 623.615 190.967 642.385 150.887C661.154 110.806 679.923 58.8879 698.692 57.051C717.462 55.2141 736.231 103.458 745.615 127.58L755 151.702" stroke="#CFF500" stroke-width="6" stroke-linecap="round"/>
<defs>
<linearGradient id="paint0_linear_12_616" x1="390.5" y1="57" x2="390.5" y2="304" gradientUnits="userSpaceOnUse">
<stop stop-color="#EDEBF0" stop-opacity="0.5"/>
<stop offset="1" stop-color="#EDEBF0" stop-opacity="0.2"/>
</linearGradient>
</defs>
</svg>
